<?xml version="1.0" encoding="UTF-8" standalone="no"?>
<!-- Created with Inkscape (http://www.inkscape.org/) -->

<svg
   width="36.289062"
   height="39.992188"
   viewBox="0 0 9.6014808 10.581266"
   version="1.1"
   id="svg5"
   xmlns="http://www.w3.org/2000/svg"
   xmlns:svg="http://www.w3.org/2000/svg">
  <defs
     id="defs2">
    <rect
       x="115.56661"
       y="145.66595"
       width="25.194265"
       height="18.951439"
       id="rect1477" />
  </defs>
  <g
     id="layer1"
     transform="translate(-29.039761,-30.734235)">
    <path
       id="path111"
       style="fill:#f2f2f2;stroke-width:0.264583"
       d="m 33.492719,30.734235 a 5.0745168,4.8483844 0 0 1 3.995105,4.736662 5.0745168,4.8483844 0 0 1 -5.074625,4.848799 5.0745168,4.8483844 0 0 1 -3.373438,-1.230415 5.2916665,5.2916665 0 0 0 4.309815,2.22622 5.2916665,5.2916665 0 0 0 5.291666,-5.291666 5.2916665,5.2916665 0 0 0 -5.148523,-5.2896 z" />
    <text
       xml:space="preserve"
       transform="matrix(0.45079353,0,0,0.67391313,-22.041361,-67.298974)"
       id="text1475"
       style="font-style:normal;font-variant:normal;font-weight:bold;font-stretch:normal;font-size:12px;font-family:'Times New Roman';-inkscape-font-specification:'Times New Roman, Bold';font-variant-ligatures:normal;font-variant-caps:normal;font-variant-numeric:normal;font-variant-east-asian:normal;white-space:pre;shape-inside:url(#rect1477);display:inline;fill:#d4aa00"><tspan
         x="115.56641"
         y="156.26607"
         id="tspan1720">.?.</tspan></text>
  </g>
</svg>
